<svg xmlns="http://www.w3.org/2000/svg" viewBox="0 0 400 400">
  <!-- Body -->
  <path d="M200 80 
           C 280 80, 320 180, 320 280
           Q 320 340, 200 340
           Q 80 340, 80 280
           C 80 180, 120 80, 200 80" 
        fill="#0D7468"/>
  
  <!-- White Belly -->
  <path d="M200 120
           C 260 120, 280 200, 280 280
           Q 280 320, 200 320
           Q 120 320, 120 280
           C 120 200, 140 120, 200 120"
        fill="white"/>
  
  <!-- Eyes -->
  <ellipse cx="160" cy="160" rx="20" ry="25" fill="white"/>
  <ellipse cx="240" cy="160" rx="20" ry="25" fill="white"/>
  <ellipse cx="160" cy="165" rx="10" ry="12" fill="black"/>
  <ellipse cx="240" cy="165" rx="10" ry="12" fill="black"/>
  
  <!-- Lowered Triangle Beak -->
  <path d="M200 225
           L 170 180
           L 230 180
           Z" 
        fill="#F97316"/>
  
  <!-- Feet -->
  <path d="M160 340
           L 140 360
           L 180 360
           Z" 
        fill="#F97316"/>
  <path d="M240 340
           L 220 360
           L 260 360
           Z" 
        fill="#F97316"/>
</svg>
